<svg height="3246" width="720" xmlns="http://www.w3.org/2000/svg">
<rect height="3246" fill="#555" width="720"></rect>
<text fill="#7f7" font-family="Courier New" font-size="12" xml:space="preserve">
<tspan x="10" y="26">└─┬ gulp-svg2png@2.0.2 </tspan>
<tspan x="10" y="42">  ├─┬ gulp-util@3.0.8 </tspan>
<tspan x="10" y="58">  │ ├── array-differ@1.0.0 </tspan>
<tspan x="10" y="74">  │ ├── array-uniq@1.0.3 </tspan>
<tspan x="10" y="90">  │ ├── beeper@1.1.1 </tspan>
<tspan x="10" y="106">  │ ├─┬ chalk@1.1.3 </tspan>
<tspan x="10" y="122">  │ │ ├── ansi-styles@2.2.1 </tspan>
<tspan x="10" y="138">  │ │ ├── escape-string-regexp@1.0.5 </tspan>
<tspan x="10" y="154">  │ │ ├─┬ has-ansi@2.0.0 </tspan>
<tspan x="10" y="170">  │ │ │ └── ansi-regex@2.1.1 </tspan>
<tspan x="10" y="186">  │ │ ├── strip-ansi@3.0.1 </tspan>
<tspan x="10" y="202">  │ │ └── supports-color@2.0.0 </tspan>
<tspan x="10" y="218">  │ ├── dateformat@2.0.0 </tspan>
<tspan x="10" y="234">  │ ├─┬ fancy-log@1.3.0 </tspan>
<tspan x="10" y="250">  │ │ └── time-stamp@1.0.1 </tspan>
<tspan x="10" y="266">  │ ├─┬ gulplog@1.0.0 </tspan>
<tspan x="10" y="282">  │ │ └── glogg@1.0.0 </tspan>
<tspan x="10" y="298">  │ ├─┬ has-gulplog@0.1.0 </tspan>
<tspan x="10" y="314">  │ │ └── sparkles@1.0.0 </tspan>
<tspan x="10" y="330">  │ ├── lodash._reescape@3.0.0 </tspan>
<tspan x="10" y="346">  │ ├── lodash._reevaluate@3.0.0 </tspan>
<tspan x="10" y="362">  │ ├── lodash._reinterpolate@3.0.0 </tspan>
<tspan x="10" y="378">  │ ├─┬ lodash.template@3.6.2 </tspan>
<tspan x="10" y="394">  │ │ ├── lodash._basecopy@3.0.1 </tspan>
<tspan x="10" y="410">  │ │ ├── lodash._basetostring@3.0.1 </tspan>
<tspan x="10" y="426">  │ │ ├── lodash._basevalues@3.0.0 </tspan>
<tspan x="10" y="442">  │ │ ├── lodash._isiterateecall@3.0.9 </tspan>
<tspan x="10" y="458">  │ │ ├─┬ lodash.escape@3.2.0 </tspan>
<tspan x="10" y="474">  │ │ │ └── lodash._root@3.0.1 </tspan>
<tspan x="10" y="490">  │ │ ├─┬ lodash.keys@3.1.2 </tspan>
<tspan x="10" y="506">  │ │ │ ├── lodash._getnative@3.9.1 </tspan>
<tspan x="10" y="522">  │ │ │ ├── lodash.isarguments@3.1.0 </tspan>
<tspan x="10" y="538">  │ │ │ └── lodash.isarray@3.0.4 </tspan>
<tspan x="10" y="554">  │ │ ├── lodash.restparam@3.6.1 </tspan>
<tspan x="10" y="570">  │ │ └── lodash.templatesettings@3.1.1 </tspan>
<tspan x="10" y="586">  │ ├── minimist@1.2.0 </tspan>
<tspan x="10" y="602">  │ ├─┬ multipipe@0.1.2 </tspan>
<tspan x="10" y="618">  │ │ └─┬ duplexer2@0.0.2 </tspan>
<tspan x="10" y="634">  │ │   └─┬ readable-stream@1.1.14 </tspan>
<tspan x="10" y="650">  │ │     └── isarray@0.0.1 </tspan>
<tspan x="10" y="666">  │ ├── object-assign@3.0.0 </tspan>
<tspan x="10" y="682">  │ ├── replace-ext@0.0.1 </tspan>
<tspan x="10" y="698">  │ ├─┬ through2@2.0.3 </tspan>
<tspan x="10" y="714">  │ │ ├─┬ readable-stream@2.2.6 </tspan>
<tspan x="10" y="730">  │ │ │ ├── buffer-shims@1.0.0 </tspan>
<tspan x="10" y="746">  │ │ │ ├── core-util-is@1.0.2 </tspan>
<tspan x="10" y="762">  │ │ │ ├── inherits@2.0.3 </tspan>
<tspan x="10" y="778">  │ │ │ ├── isarray@1.0.0 </tspan>
<tspan x="10" y="794">  │ │ │ ├── process-nextick-args@1.0.7 </tspan>
<tspan x="10" y="810">  │ │ │ ├── string_decoder@0.10.31 </tspan>
<tspan x="10" y="826">  │ │ │ └── util-deprecate@1.0.2 </tspan>
<tspan x="10" y="842">  │ │ └── xtend@4.0.1 </tspan>
<tspan x="10" y="858">  │ └─┬ vinyl@0.5.3 </tspan>
<tspan x="10" y="874">  │   ├── clone@1.0.2 </tspan>
<tspan x="10" y="890">  │   └── clone-stats@0.0.1 </tspan>
<tspan x="10" y="906">  ├── map-stream@0.0.6 </tspan>
<tspan x="10" y="922">  ├─┬ map-stream-limit@1.1.0 </tspan>
<tspan x="10" y="938">  │ ├── map-stream@0.0.3 </tspan>
<tspan x="10" y="954">  │ └── through@2.3.8 </tspan>
<tspan x="10" y="970">  └─┬ svg2png@3.1.1 </tspan>
<tspan x="10" y="986">    ├─┬ file-url@1.1.0 </tspan>
<tspan x="10" y="1002">    │ └─┬ meow@3.7.0 </tspan>
<tspan x="10" y="1018">    │   ├─┬ camelcase-keys@2.1.0 </tspan>
<tspan x="10" y="1034">    │   │ └── camelcase@2.1.1 </tspan>
<tspan x="10" y="1050">    │   ├─┬ loud-rejection@1.6.0 </tspan>
<tspan x="10" y="1066">    │   │ ├─┬ currently-unhandled@0.4.1 </tspan>
<tspan x="10" y="1082">    │   │ │ └── array-find-index@1.0.2 </tspan>
<tspan x="10" y="1098">    │   │ └── signal-exit@3.0.2 </tspan>
<tspan x="10" y="1114">    │   ├── map-obj@1.0.1 </tspan>
<tspan x="10" y="1130">    │   ├─┬ normalize-package-data@2.3.6 </tspan>
<tspan x="10" y="1146">    │   │ ├── hosted-git-info@2.4.1 </tspan>
<tspan x="10" y="1162">    │   │ ├─┬ is-builtin-module@1.0.0 </tspan>
<tspan x="10" y="1178">    │   │ │ └── builtin-modules@1.1.1 </tspan>
<tspan x="10" y="1194">    │   │ ├── semver@5.3.0 </tspan>
<tspan x="10" y="1210">    │   │ └─┬ validate-npm-package-license@3.0.1 </tspan>
<tspan x="10" y="1226">    │   │   ├─┬ spdx-correct@1.0.2 </tspan>
<tspan x="10" y="1242">    │   │   │ └── spdx-license-ids@1.2.2 </tspan>
<tspan x="10" y="1258">    │   │   └── spdx-expression-parse@1.0.4 </tspan>
<tspan x="10" y="1274">    │   ├── object-assign@4.1.1 </tspan>
<tspan x="10" y="1290">    │   ├─┬ redent@1.0.0 </tspan>
<tspan x="10" y="1306">    │   │ ├─┬ indent-string@2.1.0 </tspan>
<tspan x="10" y="1322">    │   │ │ └─┬ repeating@2.0.1 </tspan>
<tspan x="10" y="1338">    │   │ │   └── is-finite@1.0.2 </tspan>
<tspan x="10" y="1354">    │   │ └─┬ strip-indent@1.0.1 </tspan>
<tspan x="10" y="1370">    │   │   └── get-stdin@4.0.1 </tspan>
<tspan x="10" y="1386">    │   └── trim-newlines@1.0.0 </tspan>
<tspan x="10" y="1402">    ├─┬ phantomjs-prebuilt@2.1.14 </tspan>
<tspan x="10" y="1418">    │ ├── es6-promise@4.0.5 </tspan>
<tspan x="10" y="1434">    │ ├─┬ extract-zip@1.5.0 </tspan>
<tspan x="10" y="1450">    │ │ ├─┬ concat-stream@1.5.0 </tspan>
<tspan x="10" y="1466">    │ │ │ ├─┬ readable-stream@2.0.6 </tspan>
<tspan x="10" y="1482">    │ │ │ │ └── isarray@1.0.0 </tspan>
<tspan x="10" y="1498">    │ │ │ └── typedarray@0.0.6 </tspan>
<tspan x="10" y="1514">    │ │ ├── debug@0.7.4 </tspan>
<tspan x="10" y="1530">    │ │ ├─┬ mkdirp@0.5.0 </tspan>
<tspan x="10" y="1546">    │ │ │ └── minimist@0.0.8 </tspan>
<tspan x="10" y="1562">    │ │ └─┬ yauzl@2.4.1 </tspan>
<tspan x="10" y="1578">    │ │   └─┬ fd-slicer@1.0.1 </tspan>
<tspan x="10" y="1594">    │ │     └── pend@1.2.0 </tspan>
<tspan x="10" y="1610">    │ ├─┬ fs-extra@1.0.0 </tspan>
<tspan x="10" y="1626">    │ │ ├── graceful-fs@4.1.11 </tspan>
<tspan x="10" y="1642">    │ │ ├── jsonfile@2.4.0 </tspan>
<tspan x="10" y="1658">    │ │ └── klaw@1.3.1 </tspan>
<tspan x="10" y="1674">    │ ├─┬ hasha@2.2.0 </tspan>
<tspan x="10" y="1690">    │ │ ├── is-stream@1.1.0 </tspan>
<tspan x="10" y="1706">    │ │ └─┬ pinkie-promise@2.0.1 </tspan>
<tspan x="10" y="1722">    │ │   └── pinkie@2.0.4 </tspan>
<tspan x="10" y="1738">    │ ├── kew@0.7.0 </tspan>
<tspan x="10" y="1754">    │ ├── progress@1.1.8 </tspan>
<tspan x="10" y="1770">    │ ├─┬ request@2.79.0 </tspan>
<tspan x="10" y="1786">    │ │ ├── aws-sign2@0.6.0 </tspan>
<tspan x="10" y="1802">    │ │ ├── aws4@1.6.0 </tspan>
<tspan x="10" y="1818">    │ │ ├── caseless@0.11.0 </tspan>
<tspan x="10" y="1834">    │ │ ├─┬ combined-stream@1.0.5 </tspan>
<tspan x="10" y="1850">    │ │ │ └── delayed-stream@1.0.0 </tspan>
<tspan x="10" y="1866">    │ │ ├── extend@3.0.0 </tspan>
<tspan x="10" y="1882">    │ │ ├── forever-agent@0.6.1 </tspan>
<tspan x="10" y="1898">    │ │ ├─┬ form-data@2.1.2 </tspan>
<tspan x="10" y="1914">    │ │ │ └── asynckit@0.4.0 </tspan>
<tspan x="10" y="1930">    │ │ ├─┬ har-validator@2.0.6 </tspan>
<tspan x="10" y="1946">    │ │ │ ├─┬ commander@2.9.0 </tspan>
<tspan x="10" y="1962">    │ │ │ │ └── graceful-readlink@1.0.1 </tspan>
<tspan x="10" y="1978">    │ │ │ └─┬ is-my-json-valid@2.16.0 </tspan>
<tspan x="10" y="1994">    │ │ │   ├── generate-function@2.0.0 </tspan>
<tspan x="10" y="2010">    │ │ │   ├─┬ generate-object-property@1.2.0 </tspan>
<tspan x="10" y="2026">    │ │ │   │ └── is-property@1.0.2 </tspan>
<tspan x="10" y="2042">    │ │ │   └── jsonpointer@4.0.1 </tspan>
<tspan x="10" y="2058">    │ │ ├─┬ hawk@3.1.3 </tspan>
<tspan x="10" y="2074">    │ │ │ ├── boom@2.10.1 </tspan>
<tspan x="10" y="2090">    │ │ │ ├── cryptiles@2.0.5 </tspan>
<tspan x="10" y="2106">    │ │ │ ├── hoek@2.16.3 </tspan>
<tspan x="10" y="2122">    │ │ │ └── sntp@1.0.9 </tspan>
<tspan x="10" y="2138">    │ │ ├─┬ http-signature@1.1.1 </tspan>
<tspan x="10" y="2154">    │ │ │ ├── assert-plus@0.2.0 </tspan>
<tspan x="10" y="2170">    │ │ │ ├─┬ jsprim@1.4.0 </tspan>
<tspan x="10" y="2186">    │ │ │ │ ├── assert-plus@1.0.0 </tspan>
<tspan x="10" y="2202">    │ │ │ │ ├── extsprintf@1.0.2 </tspan>
<tspan x="10" y="2218">    │ │ │ │ ├── json-schema@0.2.3 </tspan>
<tspan x="10" y="2234">    │ │ │ │ └── verror@1.3.6 </tspan>
<tspan x="10" y="2250">    │ │ │ └─┬ sshpk@1.11.0 </tspan>
<tspan x="10" y="2266">    │ │ │   ├── asn1@0.2.3 </tspan>
<tspan x="10" y="2282">    │ │ │   ├── assert-plus@1.0.0 </tspan>
<tspan x="10" y="2298">    │ │ │   ├── bcrypt-pbkdf@1.0.1 </tspan>
<tspan x="10" y="2314">    │ │ │   ├─┬ dashdash@1.14.1 </tspan>
<tspan x="10" y="2330">    │ │ │   │ └── assert-plus@1.0.0 </tspan>
<tspan x="10" y="2346">    │ │ │   ├── ecc-jsbn@0.1.1 </tspan>
<tspan x="10" y="2362">    │ │ │   ├─┬ getpass@0.1.6 </tspan>
<tspan x="10" y="2378">    │ │ │   │ └── assert-plus@1.0.0 </tspan>
<tspan x="10" y="2394">    │ │ │   ├── jodid25519@1.0.2 </tspan>
<tspan x="10" y="2410">    │ │ │   ├── jsbn@0.1.1 </tspan>
<tspan x="10" y="2426">    │ │ │   └── tweetnacl@0.14.5 </tspan>
<tspan x="10" y="2442">    │ │ ├── is-typedarray@1.0.0 </tspan>
<tspan x="10" y="2458">    │ │ ├── isstream@0.1.2 </tspan>
<tspan x="10" y="2474">    │ │ ├── json-stringify-safe@5.0.1 </tspan>
<tspan x="10" y="2490">    │ │ ├─┬ mime-types@2.1.15 </tspan>
<tspan x="10" y="2506">    │ │ │ └── mime-db@1.27.0 </tspan>
<tspan x="10" y="2522">    │ │ ├── oauth-sign@0.8.2 </tspan>
<tspan x="10" y="2538">    │ │ ├── qs@6.3.2 </tspan>
<tspan x="10" y="2554">    │ │ ├── stringstream@0.0.5 </tspan>
<tspan x="10" y="2570">    │ │ ├─┬ tough-cookie@2.3.2 </tspan>
<tspan x="10" y="2586">    │ │ │ └── punycode@1.4.1 </tspan>
<tspan x="10" y="2602">    │ │ ├── tunnel-agent@0.4.3 </tspan>
<tspan x="10" y="2618">    │ │ └── uuid@3.0.1 </tspan>
<tspan x="10" y="2634">    │ ├─┬ request-progress@2.0.1 </tspan>
<tspan x="10" y="2650">    │ │ └── throttleit@1.0.0 </tspan>
<tspan x="10" y="2666">    │ └─┬ which@1.2.14 </tspan>
<tspan x="10" y="2682">    │   └── isexe@2.0.0 </tspan>
<tspan x="10" y="2698">    ├── pn@1.0.0 </tspan>
<tspan x="10" y="2714">    └─┬ yargs@5.0.0 </tspan>
<tspan x="10" y="2730">      ├─┬ cliui@3.2.0 </tspan>
<tspan x="10" y="2746">      │ └── wrap-ansi@2.1.0 </tspan>
<tspan x="10" y="2762">      ├── decamelize@1.2.0 </tspan>
<tspan x="10" y="2778">      ├── get-caller-file@1.0.2 </tspan>
<tspan x="10" y="2794">      ├── lodash.assign@4.2.0 </tspan>
<tspan x="10" y="2810">      ├─┬ os-locale@1.4.0 </tspan>
<tspan x="10" y="2826">      │ └─┬ lcid@1.0.0 </tspan>
<tspan x="10" y="2842">      │   └── invert-kv@1.0.0 </tspan>
<tspan x="10" y="2858">      ├─┬ read-pkg-up@1.0.1 </tspan>
<tspan x="10" y="2874">      │ ├─┬ find-up@1.1.2 </tspan>
<tspan x="10" y="2890">      │ │ └── path-exists@2.1.0 </tspan>
<tspan x="10" y="2906">      │ └─┬ read-pkg@1.1.0 </tspan>
<tspan x="10" y="2922">      │   ├─┬ load-json-file@1.1.0 </tspan>
<tspan x="10" y="2938">      │   │ ├─┬ parse-json@2.2.0 </tspan>
<tspan x="10" y="2954">      │   │ │ └─┬ error-ex@1.3.1 </tspan>
<tspan x="10" y="2970">      │   │ │   └── is-arrayish@0.2.1 </tspan>
<tspan x="10" y="2986">      │   │ ├── pify@2.3.0 </tspan>
<tspan x="10" y="3002">      │   │ └─┬ strip-bom@2.0.0 </tspan>
<tspan x="10" y="3018">      │   │   └── is-utf8@0.2.1 </tspan>
<tspan x="10" y="3034">      │   └── path-type@1.1.0 </tspan>
<tspan x="10" y="3050">      ├── require-directory@2.1.1 </tspan>
<tspan x="10" y="3066">      ├── require-main-filename@1.0.1 </tspan>
<tspan x="10" y="3082">      ├── set-blocking@2.0.0 </tspan>
<tspan x="10" y="3098">      ├─┬ string-width@1.0.2 </tspan>
<tspan x="10" y="3114">      │ ├── code-point-at@1.1.0 </tspan>
<tspan x="10" y="3130">      │ └─┬ is-fullwidth-code-point@1.0.0 </tspan>
<tspan x="10" y="3146">      │   └── number-is-nan@1.0.1 </tspan>
<tspan x="10" y="3162">      ├── which-module@1.0.0 </tspan>
<tspan x="10" y="3178">      ├── window-size@0.2.0 </tspan>
<tspan x="10" y="3194">      ├── y18n@3.2.1 </tspan>
<tspan x="10" y="3210">      └─┬ yargs-parser@3.2.0 </tspan>
<tspan x="10" y="3226">        └── camelcase@3.0.0</tspan>
</text>
</svg>
